<?xml version="1.0" encoding="UTF-8" standalone="no"?>
<!-- Created with Inkscape (http://www.inkscape.org/) -->

<svg
   xmlns:dc="http://purl.org/dc/elements/1.1/"
   xmlns:cc="http://creativecommons.org/ns#"
   xmlns:rdf="http://www.w3.org/1999/02/22-rdf-syntax-ns#"
   xmlns:svg="http://www.w3.org/2000/svg"
   xmlns="http://www.w3.org/2000/svg"
   xmlns:sodipodi="http://sodipodi.sourceforge.net/DTD/sodipodi-0.dtd"
   xmlns:inkscape="http://www.inkscape.org/namespaces/inkscape"
   version="1.1"
   id="svg2"
   xml:space="preserve"
   width="898.94995"
   height="447.60001"
   viewBox="0 0 898.94997 447.6"
   sodipodi:docname="c-ext-4.svg"
   inkscape:version="0.92.0 r"><metadata
     id="metadata8"><rdf:RDF><cc:Work
         rdf:about=""><dc:format>image/svg+xml</dc:format><dc:type
           rdf:resource="http://purl.org/dc/dcmitype/StillImage" /><dc:title></dc:title></cc:Work></rdf:RDF></metadata><defs
     id="defs6"><clipPath
       clipPathUnits="userSpaceOnUse"
       id="clipPath20"><path
         d="M 0,0 H 960 V 540 H 0 Z"
         id="path18"
         inkscape:connector-curvature="0" /></clipPath><clipPath
       clipPathUnits="userSpaceOnUse"
       id="clipPath62"><path
         d="M 41.76,0 H 169.7236 V 46.79999 H 41.76 Z"
         id="path60"
         inkscape:connector-curvature="0" /></clipPath><clipPath
       clipPathUnits="userSpaceOnUse"
       id="clipPath74"><path
         d="M 0,0 H 960 V 540 H 0 Z"
         id="path72"
         inkscape:connector-curvature="0" /></clipPath></defs><sodipodi:namedview
     pagecolor="#ffffff"
     bordercolor="#666666"
     borderopacity="1"
     objecttolerance="10"
     gridtolerance="10"
     guidetolerance="10"
     inkscape:pageopacity="0"
     inkscape:pageshadow="2"
     inkscape:window-width="1918"
     inkscape:window-height="1042"
     id="namedview4"
     showgrid="false"
     fit-margin-top="0"
     fit-margin-left="0"
     fit-margin-right="0"
     fit-margin-bottom="0"
     inkscape:zoom="1.11875"
     inkscape:cx="354.2423"
     inkscape:cy="176.1521"
     inkscape:window-x="0"
     inkscape:window-y="18"
     inkscape:window-maximized="0"
     inkscape:current-layer="g10" /><g
     id="g10"
     inkscape:groupmode="layer"
     inkscape:label="rubyconf16-cexts"
     transform="matrix(1.3333333,0,0,-1.3333333,-185.6,553.79999)"><g
       id="g12" /><path
       d="m 139.2,127.2 h 296.275 v 76.80001 H 139.2 Z"
       style="fill:#41555e;fill-opacity:1;fill-rule:nonzero;stroke:none"
       id="path94"
       inkscape:connector-curvature="0" /><g
       id="g96"
       transform="translate(226.67,160.32)"><text
         transform="scale(1,-1)"
         style="font-style:normal;font-variant:normal;font-weight:normal;font-stretch:normal;font-size:18px;font-family:sans-serif;-inkscape-font-specification:sans-serif;writing-mode:lr-tb;fill:#ffffff;fill-opacity:1;fill-rule:nonzero;stroke:none"
         id="text100"><tspan
           sodipodi:role="line"
           id="tspan98"
           x="0"
           y="15.925781" /></text>
</g><g
       id="g102"
       transform="translate(212.35361,160.63418)"><text
         transform="scale(1,-1)"
         style="font-style:normal;font-variant:normal;font-weight:normal;font-stretch:normal;font-size:18px;font-family:sans-serif;-inkscape-font-specification:sans-serif;writing-mode:lr-tb;fill:#ffffff;fill-opacity:1;fill-rule:nonzero;stroke:none"
         id="text106"><tspan
           sodipodi:role="line"
           id="tspan104"
           x="0"
           y="0">Ruby Interpreter</tspan></text>
</g><path
       d="m 358.7375,391.3499 c 0,-3.2309 -2.6192,-5.85 -5.8501,-5.85 v 5.85 c 0,-1.6154 -1.3095,-2.925 -2.925,-2.925 -1.6154,0 -2.925,1.3096 -2.925,2.925 l 1e-4,-5.8499 h -125.25 c -3.2309,0 -5.85,-2.6191 -5.85,-5.85 v -70.1999 c 0,-3.2309 2.6191,-5.8501 5.85,-5.8501 3.2309,0 5.8501,2.6192 5.8501,5.8501 l -2e-4,5.8499 h 125.25 c 3.2309,0 5.8501,2.6191 5.8501,5.85 z m -136.95,-17.55 c 3.2309,0 5.8501,2.6192 5.8501,5.8501 0,1.6154 -1.3096,2.925 -2.925,2.925 -1.6155,0 -2.9251,-1.3096 -2.9251,-2.925 z"
       style="fill:#ffcbcb;fill-opacity:1;fill-rule:nonzero;stroke:none"
       id="path108"
       inkscape:connector-curvature="0" /><path
       d="m 221.7875,373.7999 c 3.2309,0 5.8501,2.6192 5.8501,5.8501 0,1.6154 -1.3096,2.925 -2.925,2.925 -1.6155,0 -2.9251,-1.3096 -2.9251,-2.925 z M 352.8874,385.5 c 3.2309,0 5.8501,2.6192 5.8501,5.8501 0,3.2309 -2.6192,5.8501 -5.8501,5.8501 -3.2309,0 -5.85,-2.6192 -5.85,-5.8501 0,-1.6155 1.3096,-2.925 2.925,-2.925 1.6155,0 2.925,1.3095 2.925,2.925 z"
       style="fill:#cda3a3;fill-opacity:1;fill-rule:nonzero;stroke:none"
       id="path110"
       inkscape:connector-curvature="0" /><g
       id="g112"
       transform="matrix(7.874016e-5,0,0,-7.874016e-5,215.9375,397.2)"><path
         d="M 0,222885.2 C 0,181852.8 33263.3,148589.5 74295.67,148589.5 H 1664971 V 74295.74 C 1664971,33263.34 1698234,0 1739266,0 c 41033,0 74296,33263.34 74296,74295.74 l -2,891538.96 c 0,41032.3 -33263,74295.3 -74296,74295.3 H 148589.4 v 74294 c 0,41033 -33263.4,74296 -74295.72,74296 -41032.36,0 -74295.663333,-33263 -74295.663333,-74296 z m 1664971,-74295.7 h 74293 c 41033,0 74296,-33263.3 74296,-74295.74 m -74296,74295.74 V 74295.74 c 0,20516.21 -16631,37147.86 -37147,37147.86 -20517,0 -37148,-16631.65 -37148,-37147.86 M 74295.67,297181 v -74295.8 c 0,-20516.2 16631.65,-37147.8 37147.83,-37147.8 20516.2,0 37147.8,16631.6 37147.8,37147.8 0,41032.5 -33263.3,74295.8 -74295.63,74295.8 C 33263.3,297181 0,263917.7 0,222885.2 m 148589.4,0 V 1040130"
         style="fill:none;stroke:#f80000;stroke-width:19050;stroke-linecap:butt;stroke-linejoin:miter;stroke-miterlimit:8;stroke-dasharray:none;stroke-opacity:1"
         id="path114"
         inkscape:connector-curvature="0" /></g><g
       id="g116"
       transform="translate(264.0699,345.12)"><text
         transform="scale(1,-1)"
         style="font-variant:normal;font-weight:normal;font-size:18px;font-family:sans-serif;-inkscape-font-specification:sans-serif;writing-mode:lr-tb;fill:#ff0000;fill-opacity:1;fill-rule:nonzero;stroke:none;font-style:normal;font-stretch:normal;"
         id="text120"><tspan
           x="0"
           y="0"
           id="tspan118"
           style="-inkscape-font-specification:sans-serif;font-family:sans-serif;font-weight:normal;font-style:normal;font-stretch:normal;font-variant:normal;" /></text>
</g><g
       id="g122"
       transform="translate(255.57822,345.12)"><text
         transform="scale(1,-1)"
         style="font-style:normal;font-variant:normal;font-weight:normal;font-stretch:normal;font-size:18px;font-family:sans-serif;-inkscape-font-specification:sans-serif;writing-mode:lr-tb;fill:#ff0000;fill-opacity:1;fill-rule:nonzero;stroke:none"
         id="text126"><tspan
           sodipodi:role="line"
           id="tspan124"
           x="0"
           y="0">ruby.rb</tspan></text>
</g><path
       d="m 785.875,408.7499 c 0,-3.2309 -2.6192,-5.85 -5.8501,-5.85 v 5.85 c 0,-1.6154 -1.3096,-2.925 -2.925,-2.925 -1.6155,0 -2.9251,1.3096 -2.9251,2.925 l 2e-4,-5.8499 h -125.25 c -3.2309,0 -5.85,-2.6191 -5.85,-5.85 v -70.1999 c 0,-3.2309 2.6191,-5.8501 5.85,-5.8501 3.2309,0 5.8501,2.6192 5.8501,5.8501 l -2e-4,5.8499 h 125.25 c 3.2309,0 5.8501,2.6191 5.8501,5.85 z m -136.95,-17.55 c 3.2309,0 5.8501,2.6192 5.8501,5.8501 0,1.6154 -1.3096,2.925 -2.9251,2.925 -1.6154,0 -2.925,-1.3096 -2.925,-2.925 z"
       style="fill:#d7dfe1;fill-opacity:1;fill-rule:nonzero;stroke:none"
       id="path128"
       inkscape:connector-curvature="0" /><path
       d="m 648.925,391.1999 c 3.2309,0 5.8501,2.6192 5.8501,5.8501 0,1.6154 -1.3096,2.925 -2.9251,2.925 -1.6154,0 -2.925,-1.3096 -2.925,-2.925 z M 780.0249,402.9 c 3.2309,0 5.8501,2.6192 5.8501,5.8501 0,3.2309 -2.6192,5.8501 -5.8501,5.8501 -3.2309,0 -5.8501,-2.6192 -5.8501,-5.8501 0,-1.6155 1.3096,-2.925 2.9251,-2.925 1.6154,0 2.925,1.3095 2.925,2.925 z"
       style="fill:#adb3b5;fill-opacity:1;fill-rule:nonzero;stroke:none"
       id="path130"
       inkscape:connector-curvature="0" /><g
       id="g132"
       transform="matrix(7.874016e-5,0,0,-7.874016e-5,643.075,414.6)"><path
         d="M 0,222885.2 C 0,181852.8 33263.3,148589.5 74295.67,148589.5 H 1664971 V 74295.74 C 1664971,33263.34 1698234,0 1739266,0 c 41033,0 74296,33263.34 74296,74295.74 l -2,891538.96 c 0,41032.3 -33263,74295.3 -74296,74295.3 H 148589.4 v 74294 c 0,41033 -33263.4,74296 -74295.72,74296 -41032.36,0 -74295.663333,-33263 -74295.663333,-74296 z m 1664971,-74295.7 h 74293 c 41033,0 74296,-33263.3 74296,-74295.74 m -74296,74295.74 V 74295.74 c 0,20516.21 -16631,37147.86 -37147,37147.86 -20517,0 -37148,-16631.65 -37148,-37147.86 M 74295.67,297181 v -74295.8 c 0,-20516.2 16631.65,-37147.8 37147.83,-37147.8 20516.2,0 37147.8,16631.6 37147.8,37147.8 0,41032.5 -33263.3,74295.8 -74295.63,74295.8 C 33263.3,297181 0,263917.7 0,222885.2 m 148589.4,0 V 1040130"
         style="fill:none;stroke:#46575e;stroke-width:19050;stroke-linecap:butt;stroke-linejoin:miter;stroke-miterlimit:8;stroke-dasharray:none;stroke-opacity:1"
         id="path134"
         inkscape:connector-curvature="0" /></g><g
       id="g136"
       transform="translate(675.8574,362.52)"><text
         transform="scale(1,-1)"
         style="font-style:normal;font-variant:normal;font-weight:normal;font-stretch:normal;font-size:18px;font-family:sans-serif;-inkscape-font-specification:sans-serif;writing-mode:lr-tb;fill:#46575e;fill-opacity:1;fill-rule:nonzero;stroke:none"
         id="text140"
         x="-13.004958"
         y="4.3554993"><tspan
           x="-13.004958"
           y="4.3554993"
           id="tspan138"
           style="font-style:normal;font-variant:normal;font-weight:normal;font-stretch:normal;font-family:sans-serif;-inkscape-font-specification:sans-serif">extension.rs</tspan></text>
</g><path
       d="m 615.5375,209.1 h 197.875 v 76.80001 h -197.875 z"
       style="fill:#41555e;fill-opacity:1;fill-rule:nonzero;stroke:none"
       id="path148"
       inkscape:connector-curvature="0" /><g
       id="g150"
       transform="translate(674.35,242.22)"><text
         transform="scale(1,-1)"
         style="font-style:normal;font-variant:normal;font-weight:normal;font-stretch:normal;font-size:18px;font-family:sans-serif;-inkscape-font-specification:sans-serif;writing-mode:lr-tb;fill:#ffffff;fill-opacity:1;fill-rule:nonzero;stroke:none"
         id="text154"
         x="17.29541"
         y="-0.3141847"><tspan
           sodipodi:role="line"
           id="tspan152"
           x="17.29541"
           y="-0.3141847">rustc</tspan></text>
</g><path
       d="m 785.875,168.1499 c 0,-3.2309 -2.6192,-5.85 -5.8501,-5.85 v 5.85 c 0,-1.6154 -1.3096,-2.925 -2.925,-2.925 -1.6155,0 -2.9251,1.3096 -2.9251,2.925 l 2e-4,-5.8499 h -125.25 c -3.2309,0 -5.85,-2.6191 -5.85,-5.85 V 86.25006 c 0,-3.2309 2.6191,-5.85006 5.85,-5.85006 3.2309,0 5.8501,2.61916 5.8501,5.85006 l -2e-4,5.8499 h 125.25 c 3.2309,0 5.8501,2.61916 5.8501,5.85006 z m -136.95,-17.55 c 3.2309,0 5.8501,2.6192 5.8501,5.8501 0,1.6154 -1.3096,2.925 -2.9251,2.925 -1.6154,0 -2.925,-1.3096 -2.925,-2.925 z"
       style="fill:#ffe4cc;fill-opacity:1;fill-rule:nonzero;stroke:none"
       id="path156"
       inkscape:connector-curvature="0" /><path
       d="m 648.925,150.5999 c 3.2309,0 5.8501,2.6192 5.8501,5.8501 0,1.6154 -1.3096,2.925 -2.9251,2.925 -1.6154,0 -2.925,-1.3096 -2.925,-2.925 z M 780.0249,162.3 c 3.2309,0 5.8501,2.6192 5.8501,5.8501 0,3.2309 -2.6192,5.8501 -5.8501,5.8501 -3.2309,0 -5.8501,-2.6192 -5.8501,-5.8501 0,-1.6155 1.3096,-2.925 2.9251,-2.925 1.6154,0 2.925,1.3095 2.925,2.925 z"
       style="fill:#cdb7a4;fill-opacity:1;fill-rule:nonzero;stroke:none"
       id="path158"
       inkscape:connector-curvature="0" /><g
       id="g160"
       transform="matrix(7.874016e-5,0,0,-7.874016e-5,643.075,174)"><path
         d="M 0,222885.2 C 0,181852.8 33263.3,148589.5 74295.67,148589.5 H 1664971 V 74295.74 C 1664971,33263.34 1698234,0 1739266,0 c 41033,0 74296,33263.34 74296,74295.74 l -2,891538.96 c 0,41032.3 -33263,74295.3 -74296,74295.3 H 148589.4 v 74294 c 0,41033 -33263.4,74296 -74295.72,74296 -41032.36,0 -74295.663333,-33263 -74295.663333,-74296 z m 1664971,-74295.7 h 74293 c 41033,0 74296,-33263.3 74296,-74295.74 m -74296,74295.74 V 74295.74 c 0,20516.21 -16631,37147.86 -37147,37147.86 -20517,0 -37148,-16631.65 -37148,-37147.86 M 74295.67,297181 v -74295.8 c 0,-20516.2 16631.65,-37147.8 37147.83,-37147.8 20516.2,0 37147.8,16631.6 37147.8,37147.8 0,41032.5 -33263.3,74295.8 -74295.63,74295.8 C 33263.3,297181 0,263917.7 0,222885.2 m 148589.4,0 V 1040130"
         style="fill:none;stroke:#46575e;stroke-width:19050;stroke-linecap:butt;stroke-linejoin:miter;stroke-miterlimit:8;stroke-dasharray:none;stroke-opacity:1"
         id="path162"
         inkscape:connector-curvature="0" /></g><g
       id="g164"
       transform="translate(675.9199,121.92)"><text
         transform="scale(1,-1)"
         style="font-style:normal;font-variant:normal;font-weight:normal;font-stretch:normal;font-size:18px;font-family:sans-serif;-inkscape-font-specification:sans-serif;writing-mode:lr-tb;fill:#46575e;fill-opacity:1;fill-rule:nonzero;stroke:none"
         id="text168"
         x="-13.880446"><tspan
           sodipodi:role="line"
           id="tspan166"
           x="-13.880446"
           y="0">extension.so</tspan></text>
</g><path
       d="m 264.5062,242.8812 h 15.0157 V 287.55 h 15.6312 v -44.6688 h 15.0156 L 287.3375,220.05 Z"
       style="fill:#8da6b1;fill-opacity:1;fill-rule:nonzero;stroke:none"
       id="path170"
       inkscape:connector-curvature="0" /><path
       d="m 702.728,301.6969 h 7.7257 V 325.05 h 8.0424 v -23.3531 h 7.7257 L 714.4749,289.95 Z"
       style="fill:#8da6b1;fill-opacity:1;fill-rule:nonzero;stroke:none"
       id="path172"
       inkscape:connector-curvature="0" /><path
       d="m 702.728,180.1969 h 7.7257 V 203.55 h 8.0424 v -23.3531 h 7.7256 L 714.4749,168.45 Z"
       style="fill:#8da6b1;fill-opacity:1;fill-rule:nonzero;stroke:none"
       id="path174"
       inkscape:connector-curvature="0" /><path
       d="m 420.9812,164.1215 c 0,6.8759 6.4891,12.45 14.4938,12.45 8.0046,0 14.4937,-5.5741 14.4937,-12.45 0,-6.8759 -6.4891,-12.45 -14.4937,-12.45 -8.0047,0 -14.4938,5.5741 -14.4938,12.45 z"
       style="fill:#ffffff;fill-opacity:1;fill-rule:nonzero;stroke:none"
       id="path176"
       inkscape:connector-curvature="0" /><path
       d="m 425.9665,164.1215 c 0,4.5109 4.2571,8.1677 9.5085,8.1677 5.2514,0 9.5085,-3.6568 9.5085,-8.1677 0,-4.5109 -4.2571,-8.1677 -9.5085,-8.1677 -5.2514,0 -9.5085,3.6568 -9.5085,8.1677 z"
       style="fill:#46575e;fill-opacity:1;fill-rule:nonzero;stroke:none"
       id="path178"
       inkscape:connector-curvature="0" /><path
       d="m 583.7913,162.8211 -3.702,-6.781 44.7726,-24.4428 -3.8537,-7.0589 -44.7726,24.4428 -3.7019,-6.781 -4.6817,15.9392 z"
       style="fill:#8da6b1;fill-opacity:1;fill-rule:nonzero;stroke:none"
       id="path180"
       inkscape:connector-curvature="0" /><path
       d="M 440.2124,127.2 H 554.4 v 76.80001 H 440.2124 Z"
       style="fill:#41555e;fill-opacity:1;fill-rule:nonzero;stroke:none"
       id="path182"
       inkscape:connector-curvature="0" /><g
       id="g184"
       transform="translate(461.8162,160.32)"><text
         transform="scale(1,-1)"
         style="font-style:normal;font-variant:normal;font-weight:normal;font-stretch:normal;font-size:18px;font-family:sans-serif;-inkscape-font-specification:sans-serif;writing-mode:lr-tb;fill:#ffffff;fill-opacity:1;fill-rule:nonzero;stroke:none"
         id="text188"
         x="-8.8112698"><tspan
           x="-8.8112698"
           y="0"
           id="tspan186"
           style="font-style:normal;font-variant:normal;font-weight:normal;font-stretch:normal;font-family:sans-serif;-inkscape-font-specification:sans-serif">Extension</tspan></text>
</g></g></svg>