<?xml version="1.0" encoding="UTF-8" standalone="no"?>
<!-- Created with Inkscape (http://www.inkscape.org/) -->

<svg
   xmlns:dc="http://purl.org/dc/elements/1.1/"
   xmlns:cc="http://creativecommons.org/ns#"
   xmlns:rdf="http://www.w3.org/1999/02/22-rdf-syntax-ns#"
   xmlns:svg="http://www.w3.org/2000/svg"
   xmlns="http://www.w3.org/2000/svg"
   xmlns:xlink="http://www.w3.org/1999/xlink"
   xmlns:sodipodi="http://sodipodi.sourceforge.net/DTD/sodipodi-0.dtd"
   xmlns:inkscape="http://www.inkscape.org/namespaces/inkscape"
   sodipodi:docname="ruby-rust.svg"
   width="135.46666mm"
   height="135.09062mm"
   viewBox="0 0 135.46666 135.09062"
   version="1.1"
   id="svg8"
   inkscape:version="0.92.0 r">
  <sodipodi:namedview
     id="base"
     pagecolor="#ffffff"
     bordercolor="#666666"
     borderopacity="1.0"
     inkscape:pageopacity="0.0"
     inkscape:pageshadow="2"
     inkscape:zoom="0.41514385"
     inkscape:cx="437.55394"
     inkscape:cy="125.01881"
     inkscape:document-units="mm"
     inkscape:current-layer="layer1"
     showgrid="false"
     inkscape:window-width="1918"
     inkscape:window-height="1042"
     inkscape:window-x="0"
     inkscape:window-y="18"
     inkscape:window-maximized="0"
     fit-margin-top="0"
     fit-margin-left="0"
     fit-margin-right="0"
     fit-margin-bottom="0" />
  <defs
     id="defs2">
    <linearGradient
       id="XMLID_17_-9"
       gradientUnits="userSpaceOnUse"
       x1="174.0737"
       y1="215.5488"
       x2="132.27631"
       y2="141.7533">
      <stop
         offset="0"
         style="stop-color:#FB7655"
         id="stop3272-4" />
      <stop
         offset="0"
         style="stop-color:#FB7655"
         id="stop3274-5" />
      <stop
         offset="0.41"
         style="stop-color:#E42B1E"
         id="stop3276-1" />
      <stop
         offset="0.99"
         style="stop-color:#990000"
         id="stop3278-0" />
      <stop
         offset="1"
         style="stop-color:#990000"
         id="stop3280-3" />
    </linearGradient>
    <linearGradient
       id="XMLID_18_-7"
       gradientUnits="userSpaceOnUse"
       x1="194.895"
       y1="153.5576"
       x2="141.0276"
       y2="117.4093">
      <stop
         offset="0"
         style="stop-color:#871101"
         id="stop3285-8" />
      <stop
         offset="0"
         style="stop-color:#871101"
         id="stop3287-8" />
      <stop
         offset="0.99"
         style="stop-color:#911209"
         id="stop3289-6" />
      <stop
         offset="1"
         style="stop-color:#911209"
         id="stop3291-0" />
    </linearGradient>
    <linearGradient
       id="XMLID_19_-4"
       gradientUnits="userSpaceOnUse"
       x1="151.79539"
       y1="217.7852"
       x2="97.929703"
       y2="181.638">
      <stop
         offset="0"
         style="stop-color:#871101"
         id="stop3296-6" />
      <stop
         offset="0"
         style="stop-color:#871101"
         id="stop3298-7" />
      <stop
         offset="0.99"
         style="stop-color:#911209"
         id="stop3300-6" />
      <stop
         offset="1"
         style="stop-color:#911209"
         id="stop3302-0" />
    </linearGradient>
    <linearGradient
       id="XMLID_20_-9"
       gradientUnits="userSpaceOnUse"
       x1="38.696301"
       y1="127.3906"
       x2="47.046902"
       y2="181.66141">
      <stop
         offset="0"
         style="stop-color:#FFFFFF"
         id="stop3307-7" />
      <stop
         offset="0"
         style="stop-color:#FFFFFF"
         id="stop3309-5" />
      <stop
         offset="0.23"
         style="stop-color:#E57252"
         id="stop3311-9" />
      <stop
         offset="0.46"
         style="stop-color:#DE3B20"
         id="stop3313-7" />
      <stop
         offset="0.99"
         style="stop-color:#A60003"
         id="stop3315-8" />
      <stop
         offset="1"
         style="stop-color:#A60003"
         id="stop3317-5" />
    </linearGradient>
    <linearGradient
       id="XMLID_21_-3"
       gradientUnits="userSpaceOnUse"
       x1="96.132797"
       y1="76.715302"
       x2="99.209602"
       y2="132.1021">
      <stop
         offset="0"
         style="stop-color:#FFFFFF"
         id="stop3322-3" />
      <stop
         offset="0"
         style="stop-color:#FFFFFF"
         id="stop3324-8" />
      <stop
         offset="0.23"
         style="stop-color:#E4714E"
         id="stop3326-3" />
      <stop
         offset="0.56"
         style="stop-color:#BE1A0D"
         id="stop3328-7" />
      <stop
         offset="0.99"
         style="stop-color:#A80D00"
         id="stop3330-9" />
      <stop
         offset="1"
         style="stop-color:#A80D00"
         id="stop3332-3" />
    </linearGradient>
    <linearGradient
       id="XMLID_22_-7"
       gradientUnits="userSpaceOnUse"
       x1="147.103"
       y1="25.521"
       x2="156.3141"
       y2="65.216202">
      <stop
         offset="0"
         style="stop-color:#FFFFFF"
         id="stop3337-8" />
      <stop
         offset="0"
         style="stop-color:#FFFFFF"
         id="stop3339-7" />
      <stop
         offset="0.18"
         style="stop-color:#E46342"
         id="stop3341-4" />
      <stop
         offset="0.4"
         style="stop-color:#C82410"
         id="stop3343-1" />
      <stop
         offset="0.99"
         style="stop-color:#A80D00"
         id="stop3345-9" />
      <stop
         offset="1"
         style="stop-color:#A80D00"
         id="stop3347-0" />
    </linearGradient>
    <linearGradient
       id="XMLID_23_-9"
       gradientUnits="userSpaceOnUse"
       x1="118.9761"
       y1="11.5415"
       x2="158.66859"
       y2="-8.3048">
      <stop
         offset="0"
         style="stop-color:#FFFFFF"
         id="stop3352-8" />
      <stop
         offset="0"
         style="stop-color:#FFFFFF"
         id="stop3354-8" />
      <stop
         offset="0.54"
         style="stop-color:#C81F11"
         id="stop3356-5" />
      <stop
         offset="0.99"
         style="stop-color:#BF0905"
         id="stop3358-8" />
      <stop
         offset="1"
         style="stop-color:#BF0905"
         id="stop3360-4" />
    </linearGradient>
    <linearGradient
       id="XMLID_24_-3"
       gradientUnits="userSpaceOnUse"
       x1="3.9033"
       y1="113.5547"
       x2="7.1701999"
       y2="146.2628">
      <stop
         offset="0"
         style="stop-color:#FFFFFF"
         id="stop3365-7" />
      <stop
         offset="0"
         style="stop-color:#FFFFFF"
         id="stop3367-1" />
      <stop
         offset="0.31"
         style="stop-color:#DE4024"
         id="stop3369-3" />
      <stop
         offset="0.99"
         style="stop-color:#BF190B"
         id="stop3371-8" />
      <stop
         offset="1"
         style="stop-color:#BF190B"
         id="stop3373-0" />
    </linearGradient>
    <linearGradient
       id="XMLID_25_-9"
       gradientUnits="userSpaceOnUse"
       x1="-18.5557"
       y1="155.10451"
       x2="135.0152"
       y2="-2.8092999">
      <stop
         offset="0"
         style="stop-color:#BD0012"
         id="stop3380-7" />
      <stop
         offset="0"
         style="stop-color:#BD0012"
         id="stop3382-9" />
      <stop
         offset="0.07"
         style="stop-color:#FFFFFF"
         id="stop3384-9" />
      <stop
         offset="0.17"
         style="stop-color:#FFFFFF"
         id="stop3386-3" />
      <stop
         offset="0.27"
         style="stop-color:#C82F1C"
         id="stop3388-2" />
      <stop
         offset="0.33"
         style="stop-color:#820C01"
         id="stop3390-4" />
      <stop
         offset="0.46"
         style="stop-color:#A31601"
         id="stop3392-3" />
      <stop
         offset="0.72"
         style="stop-color:#B31301"
         id="stop3394-7" />
      <stop
         offset="0.99"
         style="stop-color:#E82609"
         id="stop3396-1" />
      <stop
         offset="1"
         style="stop-color:#E82609"
         id="stop3398-2" />
    </linearGradient>
    <linearGradient
       id="XMLID_26_-2"
       gradientUnits="userSpaceOnUse"
       x1="99.074699"
       y1="171.0332"
       x2="52.817699"
       y2="159.61659">
      <stop
         offset="0"
         style="stop-color:#8C0C01"
         id="stop3403-0" />
      <stop
         offset="0"
         style="stop-color:#8C0C01"
         id="stop3405-2" />
      <stop
         offset="0.54"
         style="stop-color:#990C00"
         id="stop3407-1" />
      <stop
         offset="0.99"
         style="stop-color:#A80D0E"
         id="stop3409-7" />
      <stop
         offset="1"
         style="stop-color:#A80D0E"
         id="stop3411-5" />
    </linearGradient>
    <linearGradient
       id="XMLID_27_-1"
       gradientUnits="userSpaceOnUse"
       x1="178.52589"
       y1="115.5146"
       x2="137.43269"
       y2="78.683998">
      <stop
         offset="0"
         style="stop-color:#7E110B"
         id="stop3416-7" />
      <stop
         offset="0"
         style="stop-color:#7E110B"
         id="stop3418-4" />
      <stop
         offset="0.99"
         style="stop-color:#9E0C00"
         id="stop3420-1" />
      <stop
         offset="1"
         style="stop-color:#9E0C00"
         id="stop3422-7" />
    </linearGradient>
    <linearGradient
       id="XMLID_28_-1"
       gradientUnits="userSpaceOnUse"
       x1="193.6235"
       y1="47.937"
       x2="173.15421"
       y2="26.053801">
      <stop
         offset="0"
         style="stop-color:#79130D"
         id="stop3427-1" />
      <stop
         offset="0"
         style="stop-color:#79130D"
         id="stop3429-1" />
      <stop
         offset="0.99"
         style="stop-color:#9E120B"
         id="stop3431-7" />
      <stop
         offset="1"
         style="stop-color:#9E120B"
         id="stop3433-0" />
    </linearGradient>
    <radialGradient
       id="XMLID_29_-4"
       cx="143.8315"
       cy="79.388199"
       r="50.357601"
       gradientUnits="userSpaceOnUse">
      <stop
         offset="0"
         style="stop-color:#A80D00"
         id="stop3440-0" />
      <stop
         offset="0"
         style="stop-color:#A80D00"
         id="stop3442-8" />
      <stop
         offset="0.99"
         style="stop-color:#7E0E08"
         id="stop3444-5" />
      <stop
         offset="1"
         style="stop-color:#7E0E08"
         id="stop3446-1" />
    </radialGradient>
    <radialGradient
       id="XMLID_30_-6"
       cx="74.0923"
       cy="145.75101"
       r="66.943703"
       gradientUnits="userSpaceOnUse">
      <stop
         offset="0"
         style="stop-color:#A30C00"
         id="stop3451-6" />
      <stop
         offset="0"
         style="stop-color:#A30C00"
         id="stop3453-2" />
      <stop
         offset="0.99"
         style="stop-color:#800E08"
         id="stop3455-1" />
      <stop
         offset="1"
         style="stop-color:#800E08"
         id="stop3457-9" />
    </radialGradient>
    <linearGradient
       id="XMLID_31_-6"
       gradientUnits="userSpaceOnUse"
       x1="26.669901"
       y1="197.33591"
       x2="9.9886999"
       y2="140.742">
      <stop
         offset="0"
         style="stop-color:#8B2114"
         id="stop3462-4" />
      <stop
         offset="0"
         style="stop-color:#8B2114"
         id="stop3464-8" />
      <stop
         offset="0.43"
         style="stop-color:#9E100A"
         id="stop3466-0" />
      <stop
         offset="0.99"
         style="stop-color:#B3100C"
         id="stop3468-8" />
      <stop
         offset="1"
         style="stop-color:#B3100C"
         id="stop3470-1" />
    </linearGradient>
    <linearGradient
       id="XMLID_32_-0"
       gradientUnits="userSpaceOnUse"
       x1="154.6411"
       y1="9.7979002"
       x2="192.039"
       y2="26.305901">
      <stop
         offset="0"
         style="stop-color:#B31000"
         id="stop3475-2" />
      <stop
         offset="0"
         style="stop-color:#B31000"
         id="stop3477-2" />
      <stop
         offset="0.44"
         style="stop-color:#910F08"
         id="stop3479-9" />
      <stop
         offset="0.99"
         style="stop-color:#791C12"
         id="stop3481-7" />
      <stop
         offset="1"
         style="stop-color:#791C12"
         id="stop3483-5" />
    </linearGradient>
    <linearGradient
       y2="141.7533"
       x2="132.27631"
       y1="215.5488"
       x1="174.0737"
       gradientUnits="userSpaceOnUse"
       id="linearGradient3448"
       xlink:href="#XMLID_17_-9"
       inkscape:collect="always" />
  </defs>
  <metadata
     id="metadata5">
    <rdf:RDF>
      <cc:Work
         rdf:about="">
        <dc:format>image/svg+xml</dc:format>
        <dc:type
           rdf:resource="http://purl.org/dc/dcmitype/StillImage" />
        <dc:title></dc:title>
      </cc:Work>
    </rdf:RDF>
  </metadata>
  <g
     id="layer1"
     inkscape:groupmode="layer"
     inkscape:label="Layer 1"
     transform="translate(-102.17504,-72.805326)">
    <g
       id="g6189">
      <g
         style="overflow:visible"
         id="g5094"
         transform="matrix(0.68372617,0,0,0.68372617,102.17504,72.805326)"
         inkscape:export-xdpi="96.079201"
         inkscape:export-ydpi="96.079201">
        <polygon
           id="polygon3282"
           points="153.5,130.41 40.38,197.58 186.849,187.641 198.13,39.95 "
           style="clip-rule:evenodd;fill:url(#linearGradient3448);fill-rule:evenodd" />
        <polygon
           id="polygon3293"
           points="187.089,187.54 174.5,100.65 140.209,145.93 "
           style="clip-rule:evenodd;fill:url(#XMLID_18_-7);fill-rule:evenodd" />
        <polygon
           id="polygon3304"
           points="187.259,187.54 95.03,180.3 40.87,197.391 "
           style="clip-rule:evenodd;fill:url(#XMLID_19_-4);fill-rule:evenodd" />
        <polygon
           id="polygon3319"
           points="41,197.41 64.04,121.93 13.34,132.771 "
           style="clip-rule:evenodd;fill:url(#XMLID_20_-9);fill-rule:evenodd" />
        <polygon
           id="polygon3334"
           points="140.2,146.18 119,63.14 58.33,120.01 "
           style="clip-rule:evenodd;fill:url(#XMLID_21_-3);fill-rule:evenodd" />
        <polygon
           id="polygon3349"
           points="193.32,64.31 135.97,17.47 120,69.1 "
           style="clip-rule:evenodd;fill:url(#XMLID_22_-7);fill-rule:evenodd" />
        <polygon
           id="polygon3362"
           points="166.5,0.77 132.77,19.41 111.49,0.52 "
           style="clip-rule:evenodd;fill:url(#XMLID_23_-9);fill-rule:evenodd" />
        <polygon
           id="polygon3375"
           points="0,158.09 14.13,132.32 2.7,101.62 "
           style="clip-rule:evenodd;fill:url(#XMLID_24_-3);fill-rule:evenodd" />
        <path
           id="path3377"
           d="m 1.94,100.65 11.5,32.62 49.97,-11.211 57.05,-53.02 L 136.56,17.9 111.209,0 68.109,16.13 C 54.53,28.76 28.18,53.75 27.23,54.22 26.29,54.7 9.83,85.81 1.94,100.65 Z"
           inkscape:connector-curvature="0"
           style="clip-rule:evenodd;fill:#ffffff;fill-rule:evenodd" />
        <path
           id="path3400"
           d="m 42.32,42.05 c 29.43,-29.18 67.37,-46.42 81.93,-31.73 14.551,14.69 -0.88,50.39 -30.31,79.56 -29.43,29.17 -66.9,47.36 -81.45,32.67 -14.56,-14.68 0.4,-51.33 29.83,-80.5 z"
           inkscape:connector-curvature="0"
           style="clip-rule:evenodd;fill:url(#XMLID_25_-9);fill-rule:evenodd" />
        <path
           id="path3413"
           d="m 41,197.38 22.86,-75.72 75.92,24.39 C 112.33,171.79 81.8,193.55 41,197.38 Z"
           inkscape:connector-curvature="0"
           style="clip-rule:evenodd;fill:url(#XMLID_26_-2);fill-rule:evenodd" />
        <path
           id="path3424"
           d="m 120.56,68.89 19.49,77.2 C 162.98,121.98 183.56,96.06 193.639,64 Z"
           inkscape:connector-curvature="0"
           style="clip-rule:evenodd;fill:url(#XMLID_27_-1);fill-rule:evenodd" />
        <path
           id="path3435"
           d="m 193.44,64.39 c 7.8,-23.54 9.6,-57.31 -27.181,-63.58 l -30.18,16.67 z"
           inkscape:connector-curvature="0"
           style="clip-rule:evenodd;fill:url(#XMLID_28_-1);fill-rule:evenodd" />
        <path
           id="path3437"
           d="m 0,157.75 c 1.08,38.851 29.11,39.43 41.05,39.771 L 13.47,133.11 Z"
           inkscape:connector-curvature="0"
           style="clip-rule:evenodd;fill:#9e1209;fill-rule:evenodd" />
        <path
           id="path3448"
           d="m 120.669,69.01 c 17.62,10.83 53.131,32.58 53.851,32.98 1.119,0.63 15.31,-23.93 18.53,-37.81 z"
           inkscape:connector-curvature="0"
           style="clip-rule:evenodd;fill:url(#XMLID_29_-4);fill-rule:evenodd" />
        <path
           id="path3459"
           d="m 63.83,121.66 30.56,58.96 c 18.07,-9.8 32.22,-21.74 45.18,-34.53 z"
           inkscape:connector-curvature="0"
           style="clip-rule:evenodd;fill:url(#XMLID_30_-6);fill-rule:evenodd" />
        <path
           id="path3472"
           d="m 13.35,133.19 -4.33,51.56 c 8.17,11.16 19.41,12.13 31.2,11.26 -8.53,-21.23 -25.57,-63.68 -26.87,-62.82 z"
           inkscape:connector-curvature="0"
           style="clip-rule:evenodd;fill:url(#XMLID_31_-6);fill-rule:evenodd" />
        <path
           id="path3485"
           d="m 135.9,17.61 60.71,8.52 C 193.37,12.4 183.42,3.54 166.46,0.77 Z"
           inkscape:connector-curvature="0"
           style="clip-rule:evenodd;fill:url(#XMLID_32_-0);fill-rule:evenodd" />
      </g>
      <path
         d="m 180.79227,104.63861 c 0,0 -2.06664,-0.59013 -2.06664,-0.59013 0.0762,-0.25116 0.14921,-0.5005 0.2193,-0.74774 0,0 3.1323,-3.05265 3.1323,-3.05265 0.31844,-0.310274 0.54667,-0.674034 0.60172,-0.960974 0.0573,-0.28891 -0.0658,-0.45989 -0.32467,-0.4529 0,0 -2.54587,0.065 -2.54587,0.065 0.0224,-0.22539 0.0406,-0.44758 0.0563,-0.66782 0,0 2.81958,-3.27394 2.81958,-3.27394 0.28719,-0.332968 0.45419,-0.68526 0.44389,-0.932888 -0.0105,-0.246444 -0.19891,-0.352371 -0.49683,-0.279856 0,0 -2.93821,0.720014 -2.93821,0.720014 -0.0323,-0.187951 -0.071,-0.370358 -0.11161,-0.550474 0,0 2.40661,-3.382945 2.40661,-3.382945 0.2458,-0.34478 0.34727,-0.673808 0.26845,-0.868988 -0.0777,-0.196654 -0.32202,-0.234139 -0.65053,-0.0955 0,0 -3.22535,1.352716 -3.22535,1.352716 -0.0872,-0.140085 -0.17804,-0.277197 -0.27346,-0.409439 0,0 1.9016,-3.367117 1.9016,-3.367117 0.1929,-0.341962 0.2243,-0.633597 0.0809,-0.77157 -0.14165,-0.138157 -0.43685,-0.103184 -0.78017,0.09318 0,0 -3.38366,1.937374 -3.38366,1.937374 -0.13742,-0.09079 -0.27868,-0.178537 -0.42381,-0.261665 0,0 1.31304,-3.21457 1.31304,-3.21457 0.13373,-0.325926 0.0919,-0.570044 -0.11033,-0.643427 -0.20249,-0.07438 -0.53452,0.03153 -0.88027,0.279539 0,0 -3.40542,2.445107 -3.40542,2.445107 -0.18661,-0.03655 -0.37439,-0.07152 -0.56626,-0.101304 0,0 0.66864,-2.931588 0.66864,-2.931588 0.0678,-0.297386 -0.045,-0.483749 -0.29882,-0.490389 -0.25309,-0.0075 -0.61214,0.165896 -0.94722,0.456697 0,0 -3.30021,2.863047 -3.30021,2.863047 -0.22571,0.01877 -0.4539,0.04112 -0.68601,0.06819 0,0 -0.001,-2.539457 -0.001,-2.539457 4e-4,-0.259233 -0.17964,-0.379614 -0.47661,-0.318287 -0.29665,0.06173 -0.66593,0.294934 -0.97708,0.61668 0,0 -3.07282,3.181787 -3.07282,3.181787 -0.25412,0.07383 -0.51107,0.150825 -0.76936,0.232702 0,0 -0.67782,-2.053932 -0.67782,-2.053932 -0.0683,-0.208315 -0.30974,-0.257826 -0.63713,-0.131033 -0.32743,0.126805 -0.69468,0.412073 -0.96922,0.753297 0,0 -2.71984,3.373071 -2.71984,3.373071 -0.27583,0.125494 -0.5535,0.255835 -0.83027,0.388015 0,0 -1.33014,-1.479095 -1.33014,-1.479095 -0.13515,-0.14946 -0.42765,-0.126496 -0.77259,0.06051 -0.34669,0.188722 -0.69595,0.514338 -0.92465,0.862972 0,0 -2.24951,3.422439 -2.24951,3.422439 -0.28991,0.175842 -0.57904,0.355203 -0.86821,0.536057 0,0 -1.93085,-0.841493 -1.93085,-0.841493 -0.19608,-0.08629 -0.52924,0.0085 -0.88022,0.251489 -0.34994,0.24151 -0.66937,0.597031 -0.84146,0.936659 0,0 -1.69782,3.349465 -1.69782,3.349465 -0.28741,0.21674 -0.57371,0.43632 -0.86034,0.65809 0,0 -2.46123,-0.17441 -2.46123,-0.17441 -0.25023,-0.0181 -0.611,0.14582 -0.95194,0.43277 -0.34172,0.28613 -0.61709,0.65596 -0.72506,0.97448 0,0 -1.07685,3.148324 -1.07685,3.148324 -0.27201,0.24691 -0.54345,0.49668 -0.81312,0.74741 0,0 -2.90107,0.50311 -2.90107,0.50311 -0.29528,0.0521 -0.66881,0.27787 -0.98762,0.59749 -0.32033,0.32082 -0.53875,0.68863 -0.58044,0.9749 0,0 -0.40804,2.81572 -0.40804,2.81572 -0.24841,0.26891 -0.496,0.5396 -0.74129,0.8115 0,0 -3.22336,1.16316 -3.22336,1.16316 -0.32635,0.12003 -0.69853,0.39676 -0.98261,0.73779 -0.2843,0.34009 -0.43963,0.69422 -0.41197,0.93568 0,0 0.27727,2.367 0.27727,2.367 -0.2179,0.28386 -0.43509,0.569 -0.6493,0.85614 0,0 -3.40981,1.77089 -3.40981,1.77089 -0.3466,0.17999 -0.70185,0.50139 -0.93986,0.84964 -0.23761,0.34861 -0.32283,0.67331 -0.22687,0.85959 0,0 0.94979,1.8284 0.94979,1.8284 -0.17725,0.2867 -0.35233,0.57359 -0.52379,0.86062 0,0 -3.46821,2.31066 -3.46821,2.31066 -0.3522,0.23459 -0.67761,0.5853 -0.8597,0.92759 -0.18192,0.34167 -0.19413,0.62451 -0.0331,0.74935 0,0 1.58794,1.22455 1.58794,1.22455 -0.12665,0.27278 -0.25075,0.54611 -0.37076,0.81729 0,0 -3.40062,2.76586 -3.40062,2.76586 -0.34441,0.27988 -0.6267,0.64603 -0.74614,0.96836 -0.11944,0.3223 -0.0584,0.55292 0.16117,0.60993 0,0 2.16161,0.57119 2.16161,0.57119 -0.0747,0.25338 -0.1452,0.50459 -0.21215,0.75332 0,0 -3.18955,3.10262 -3.18955,3.10262 -0.32345,0.31454 -0.55201,0.68198 -0.6039,0.97064 -0.0523,0.28978 0.0801,0.45843 0.34833,0.44839 0,0 2.64203,-0.10368 2.64203,-0.10368 -0.0191,0.22565 -0.0332,0.44762 -0.0441,0.66738 0,0 -2.85092,3.31072 -2.85092,3.31072 -0.28991,0.33698 -0.45633,0.69114 -0.43876,0.93579 0.017,0.24584 0.21482,0.34752 0.5226,0.26854 0,0 3.02404,-0.76987 3.02404,-0.76987 0.0379,0.18569 0.0804,0.36641 0.1269,0.545 0,0 -2.41249,3.3978 -2.41249,3.3978 -0.24554,0.34542 -0.34272,0.67229 -0.25717,0.86461 0.0852,0.1929 0.34088,0.22347 0.67404,0.08 0,0 3.2933,-1.40519 3.2933,-1.40519 0.0932,0.13712 0.18916,0.26945 0.28874,0.39931 0,0 -1.88465,3.3583 -1.88465,3.3583 -0.19078,0.34011 -0.21643,0.62621 -0.0663,0.75826 0.14775,0.13402 0.45177,0.0898 0.8002,-0.11138 0,0 3.42878,-1.9812 3.42878,-1.9812 0.14235,0.0869 0.28895,0.168 0.43834,0.24586 0,0 -1.28201,3.18054 -1.28201,3.18054 -0.13047,0.32207 -0.0829,0.55895 0.12451,0.62663 0.20637,0.0676 0.54508,-0.0453 0.89346,-0.2971 0,0 3.42464,-2.47227 3.42464,-2.47227 0.18908,0.0327 0.38075,0.0613 0.57666,0.0855 0,0 -0.6321,2.87336 -0.6321,2.87336 -0.0646,0.29241 0.0526,0.47079 0.31034,0.46993 0.25653,5.6e-4 0.61812,-0.17764 0.95271,-0.46848 0,0 3.29407,-2.86852 3.29407,-2.86852 0.22811,-0.0239 0.45812,-0.0501 0.69179,-0.082 0,0 0.033,2.46638 0.033,2.46638 0.004,0.25024 0.1853,0.36355 0.48365,0.29523 0.29673,-0.0656 0.66525,-0.3016 0.97461,-0.62268 0,0 3.04938,-3.16026 3.04938,-3.16026 0.25339,-0.0764 0.51039,-0.15811 0.76809,-0.24188 0,0 0.6951,1.97473 0.6951,1.97473 0.0699,0.19894 0.31057,0.24224 0.63607,0.11161 0.32548,-0.13054 0.68958,-0.41592 0.96097,-0.7521 0,0 2.6854,-3.32751 2.6854,-3.32751 0.27423,-0.12934 0.54845,-0.26012 0.82323,-0.39525 0,0 1.32565,1.40302 1.32565,1.40302 0.13397,0.14275 0.42317,0.11477 0.76447,-0.0753 0.34178,-0.18871 0.68649,-0.51207 0.91107,-0.85274 0,0 2.21413,-3.35691 2.21413,-3.35691 0.28592,-0.17584 0.57182,-0.35578 0.85712,-0.53708 0,0 1.90022,0.78086 1.90022,0.78086 0.1931,0.0786 0.52044,-0.0194 0.86443,-0.25994 0.34408,-0.23951 0.65758,-0.58951 0.82711,-0.92168 0,0 1.67131,-3.27158 1.67131,-3.27158 0.28236,-0.21472 0.5641,-0.43333 0.84518,-0.65167 0,0 2.40652,0.13203 2.40652,0.13203 0.24411,0.0139 0.59604,-0.14953 0.93026,-0.4318 0.33507,-0.28324 0.60439,-0.64397 0.71229,-0.95499 0,0 1.06892,-3.07062 1.06892,-3.07062 0.26674,-0.24322 0.53203,-0.48678 0.7963,-0.73458 0,0 2.82456,-0.52079 2.82456,-0.52079 0.28671,-0.0531 0.65017,-0.27434 0.96223,-0.58967 0.31347,-0.31484 0.52818,-0.67314 0.57113,-0.95117 0,0 0.42371,-2.74589 0.42371,-2.74589 0.2446,-0.26498 0.4872,-0.53019 0.7277,-0.79815 0,0 3.1317,-1.15411 3.1317,-1.15411 0.3153,-0.11558 0.67899,-0.39014 0.95775,-0.72489 0.27915,-0.33439 0.43407,-0.68028 0.40916,-0.9147 0,0 -0.23588,-2.31233 -0.23588,-2.31233 0.21532,-0.28001 0.42851,-0.5597 0.63874,-0.8413 0,0 3.31331,-1.74045 3.31331,-1.74045 0.33662,-0.17616 0.68345,-0.49137 0.91755,-0.83307 0.23369,-0.34055 0.3222,-0.65942 0.23209,-0.84227 0,0 -0.88423,-1.7981 -0.88423,-1.7981 0.17472,-0.28153 0.34836,-0.56369 0.51881,-0.84612 0,0 3.37589,-2.2645 3.37589,-2.2645 0.34325,-0.23038 0.66257,-0.57426 0.84259,-0.91026 0.18223,-0.33641 0.19896,-0.61509 0.0459,-0.73821 0,0 -1.5028,-1.21995 -1.5028,-1.21995 0.12622,-0.26885 0.25087,-0.53863 0.37206,-0.80657 0,0 3.32281,-2.71326 3.32281,-2.71326 0.33605,-0.27381 0.61466,-0.63472 0.73579,-0.95266 0.12113,-0.31794 0.0682,-0.54823 -0.14094,-0.60768 0,0 -1.3e-4,3e-5 -1.3e-4,3e-5 m -26.46728,29.24337 c -0.9537,0.19467 -1.23538,-0.54191 -0.62856,-1.64798 0.60592,-1.1049 1.87182,-2.15867 2.8247,-2.35197 0.95358,-0.19526 1.23414,0.54358 0.62806,1.647 -0.60596,1.10313 -1.871,2.15682 -2.8242,2.35295 0,0 0,0 0,0 m 1.38553,-5.73896 c -0.87145,0.17766 -2.02567,1.13781 -2.57926,2.14729 0,0 -2.62738,4.78823 -2.62738,4.78823 -3.47864,2.5098 -7.06994,4.5669 -10.56681,5.96298 -3.58342,1.43061 -6.6988,2.01793 -9.24135,1.85733 0,0 0.67904,-4.03213 0.67904,-4.03213 0.14315,-0.84966 -0.57739,-1.06847 -1.61016,-0.48756 0,0 -4.3425,2.44162 -4.3425,2.44162 -0.46996,-0.4497 -0.86996,-0.96911 -1.19708,-1.55581 0,0 19.55123,-7.76574 19.55123,-7.76574 0.22022,-0.0875 0.38163,-0.18463 0.45513,-0.38016 0,0 2.52819,-6.72524 2.52819,-6.72524 0.0737,-0.19601 -0.0585,-0.17686 -0.27893,-0.0897 0,0 -5.70188,2.25593 -5.70188,2.25593 0,0 1.60365,-4.27687 1.60365,-4.27687 0,0 6.16866,-2.43491 6.16866,-2.43491 0.56215,-0.2219 2.94459,-1.02848 2.57422,1.71875 -0.10939,0.84232 -0.72281,3.68157 -0.72434,4.51261 -0.0474,0.94946 0.61399,2.54434 2.19453,1.91655 0,0 9.62742,-3.82402 9.62742,-3.82402 0.10905,-0.0433 0.23003,-0.10134 0.36102,-0.17215 -1.00291,1.15353 -2.05244,2.285 -3.13736,3.38383 0,0 -3.73604,0.75913 -3.73604,0.75913 m -29.17352,16.74431 c -1.13311,0.63896 -1.92589,0.4022 -1.77115,-0.52866 0.15677,-0.93365 1.20089,-2.20494 2.3349,-2.84374 1.13283,-0.6367 1.92489,-0.39847 1.76854,0.53293 -0.15666,0.93058 -1.20076,2.20223 -2.33229,2.83947 0,0 0,0 0,0 m 3.50491,-26.43081 c 0.0791,0.79302 -0.78749,2.09873 -1.93593,2.91442 -1.1487,0.81697 -2.14537,0.83744 -2.22537,0.0437 -0.0802,-0.79371 0.78651,-2.09927 1.93704,-2.91685 1.14999,-0.8167 2.14547,-0.83585 2.22426,-0.0412 0,0 0,0 0,0 m -4.27416,6.21091 c 0,0 4.89818,-3.48515 4.89818,-3.48515 1.04519,-0.74349 1.83511,-1.93168 1.76352,-2.65431 0,0 -0.15424,-1.57434 -0.15424,-1.57434 0,0 3.41202,-1.33876 3.41202,-1.33876 0,0 -5.58703,14.96925 -5.58703,14.96925 0,0 -6.88025,2.72179 -6.88025,2.72179 0.16132,-1.80417 0.64236,-3.83308 1.4718,-6.06284 0.31679,-0.85161 0.67737,-1.71232 1.07597,-2.57563 0,0 3e-5,-1e-5 3e-5,-1e-5 m 18.98878,-8.71311 c 0,0 1.65439,-4.41219 1.65439,-4.41219 0,0 8.05728,-3.16167 8.05728,-3.16167 0.41525,-0.16295 2.7528,-0.67834 2.0566,1.16976 -0.57768,1.53353 -2.71284,2.8416 -4.29978,3.46583 0,0 -7.46825,2.93766 -7.46825,2.93766 0,0 -2.4e-4,6.1e-4 -2.4e-4,6.1e-4 m 27.61592,-7.50754 c -0.22052,0.58094 -0.46019,1.16418 -0.71969,1.75152 0,0 -2.41772,0.95401 -2.41772,0.95401 -0.2422,0.0956 -0.399,0.2907 -0.48771,0.52468 0,0 -0.41526,1.09526 -0.41526,1.09526 -0.97681,2.5763 -2.66391,3.71969 -4.01119,4.37391 -1.28409,0.62417 -2.40755,0.5208 -2.29542,-0.15474 0.7955,-3.74096 -0.0931,-4.12334 -1.44967,-4.85615 2.94421,-2.4267 6.25075,-5.59746 7.36432,-8.54012 1.20383,-3.18114 -0.24733,-4.321764 -1.38311,-4.716384 -1.59725,-0.55042 -3.84066,0.0908 -4.4745,0.3385 0,0 -25.39842,9.926354 -25.39842,9.926354 4.87727,-5.13883 10.56695,-9.648654 16.22075,-12.683654 0,0 1.8318,1.92554 1.8318,1.92554 0.41394,0.4333 1.52275,0.0229 2.47928,-0.91831 0,0 4.52326,-4.450335 4.52326,-4.450335 6.49283,-1.432529 10.75923,0.555826 11.92157,5.093875 0,0 -4.178,5.940884 -4.178,5.940884 -0.72185,1.02738 -0.70924,1.89191 0.0258,1.93213 0,0 3.62698,0.19644 3.62698,0.19644 -0.21403,0.73244 -0.4669,1.48672 -0.76294,2.26658 0,0 -1.3e-4,10e-6 -1.3e-4,10e-6 m -15.4858,-15.783405 c 1.0499,-1.033412 2.26746,-1.481659 2.7206,-1.004199 0.45092,0.479482 -0.0332,1.702704 -1.08337,2.735117 -1.04865,1.032393 -2.26604,1.482283 -2.71978,1.004963 -0.45242,-0.47766 0.0313,-1.701911 1.08258,-2.735947 0,0 -3e-5,6.6e-5 -3e-5,6.6e-5 m 15.81177,9.127815 c 0.79196,-1.12633 2.08792,-2.002834 2.89342,-1.957044 0.80518,0.0452 0.81519,0.995324 0.0233,2.120544 -0.79134,1.12543 -2.08585,2.00164 -2.89217,1.95746 -0.80522,-0.0444 -0.8169,-0.99358 -0.0246,-2.12096 0,0 0,0 0,0"
         id="path3"
         inkscape:connector-curvature="0"
         style="stroke-width:1.51109588"
         inkscape:export-xdpi="95.998352"
         inkscape:export-ydpi="95.998352" />
    </g>
  </g>
</svg>
